<?xml version="1.0" encoding="UTF-8"?>
<svg version="1.1" xmlns="http://www.w3.org/2000/svg" width="1200" height="1200">
<path d="M0 0 C396 0 792 0 1200 0 C1200 396 1200 792 1200 1200 C804 1200 408 1200 0 1200 C0 804 0 408 0 0 Z " fill="#120D24" transform="translate(0,0)"/>
<path d="M0 0 C13.94692261 10.44071301 21.56362446 23.30424784 25.796875 40.09375 C25.97049561 40.7326416 26.14411621 41.3715332 26.32299805 42.02978516 C29.926241 57.72366249 24.85675133 74.2179832 17.00912094 87.75792408 C14.80470933 91.24438225 12.13761464 94.23768807 9.30718994 97.22477722 C8.78188195 97.78603591 8.25657395 98.3472946 7.71534753 98.92556113 C2.1560896 104.83411059 -3.55955501 110.58386312 -9.30566406 116.30981445 C-10.46034408 117.46421137 -11.61480192 118.61883055 -12.76905823 119.77365112 C-15.85899102 122.8638671 -18.95196458 125.95102232 -22.04555607 129.03757501 C-25.29445776 132.28016253 -28.54046741 135.52564271 -31.7868042 138.77079773 C-37.91489733 144.89580106 -44.04553163 151.01825414 -50.17711711 157.13976115 C-57.16596224 164.11737152 -64.15191785 171.09787187 -71.13765001 178.07859862 C-85.48962912 192.42016667 -99.84517524 206.75815958 -114.203125 221.09375 C-112.55029877 225.36640276 -109.34599171 228.2168646 -106.15414429 231.36978149 C-105.52765193 231.99657157 -104.90115957 232.62336165 -104.25568259 233.26914537 C-102.15221657 235.37122082 -100.04168711 237.46605877 -97.93115234 239.56103516 C-96.42304406 241.06530583 -94.91538996 242.57003198 -93.40815735 244.07518005 C-90.16051499 247.3164965 -86.90979016 250.55467854 -83.65668869 253.7905159 C-78.51792356 258.90228346 -73.3867534 264.02162859 -68.25674438 269.1421814 C-57.36976026 280.00694972 -46.47436066 290.86326122 -35.578125 301.71875 C-23.80917247 313.44371236 -12.04164497 325.17008297 -0.28382647 336.90621221 C4.82143966 342.00148263 9.93155083 347.09182942 15.04535317 352.17853189 C18.21802418 355.33634057 21.38659685 358.49823658 24.55404091 361.66128731 C26.02938459 363.13287 27.50646428 364.60271449 28.98535347 366.07073402 C30.9954476 368.06651148 32.99939346 370.06826131 35.00186157 372.07168579 C35.59581242 372.65844672 36.18976327 373.24520765 36.80171263 373.84974921 C40.796875 377.86556412 40.796875 377.86556412 40.796875 380.09375 C16.92730736 380.28064319 -6.94215062 380.42171105 -30.81230259 380.50824738 C-41.89570641 380.54949607 -52.97865558 380.60573087 -64.06176758 380.69726562 C-73.7219954 380.77701083 -83.38189396 380.82861754 -93.04244179 380.84645796 C-98.15769741 380.8568866 -103.27201113 380.88138824 -108.3869648 380.93959045 C-113.20282874 380.99394473 -118.01736408 381.01063237 -122.83350563 380.99861145 C-124.5996142 381.00081006 -126.36576776 381.01669464 -128.13161087 381.0473938 C-141.38955614 381.26655227 -141.38955614 381.26655227 -145.4727459 378.62602711 C-147.27174267 376.55804339 -148.69305945 374.37992447 -150.203125 372.09375 C-151.79839633 370.39616721 -153.43388232 368.73588866 -155.09790039 367.1056366 C-156.00613556 366.2018074 -156.91437073 365.29797821 -157.85012817 364.36676025 C-158.83364681 363.39315576 -159.81719894 362.41958509 -160.80078125 361.44604492 C-161.85473243 360.39893872 -162.90842591 359.35157308 -163.96188354 358.30397034 C-166.2167731 356.06232739 -168.47308705 353.82213175 -170.73043823 351.58296776 C-174.30755098 348.03390132 -177.87907187 344.47924306 -181.44946289 340.92341614 C-182.6766136 339.70140815 -183.90377125 338.47940713 -185.13093567 337.25741291 C-185.74512674 336.6458074 -186.35931782 336.03420188 -186.99212074 335.40406287 C-195.293812 327.13829237 -203.60024869 318.87733513 -211.91699219 310.62670898 C-217.54338084 305.04495988 -223.16249903 299.45599923 -228.77363873 293.85891992 C-231.73565196 290.90493815 -234.70120195 287.95471947 -237.67581177 285.0134182 C-240.47528043 282.24524754 -243.26507259 279.46767085 -246.048069 276.68294334 C-247.06397137 275.66971222 -248.08325295 274.65985464 -249.10634995 273.6538887 C-258.35427089 264.55401275 -264.80625268 255.30496885 -269.203125 243.09375 C-269.54730469 242.31773437 -269.89148438 241.54171875 -270.24609375 240.7421875 C-272.41700597 234.73452022 -272.38529953 228.4669283 -272.390625 222.15625 C-272.40287109 221.39634766 -272.41511719 220.63644531 -272.42773438 219.85351562 C-272.48305274 198.26091396 -259.66857723 182.53763587 -245.2326355 168.00973511 C-242.9459594 165.71916849 -240.65263726 163.4353344 -238.35888672 161.15185547 C-237.08792086 159.88281308 -235.81718566 158.61353965 -234.54666138 157.34405518 C-231.82922547 154.62975921 -229.11024936 151.91701934 -226.39004135 149.20550156 C-222.08318033 144.91225854 -217.7802217 140.61511824 -213.47781372 136.31741333 C-204.34755583 127.19821355 -195.21306177 118.08326246 -186.078125 108.96875 C-176.20662285 99.11930686 -166.33587022 89.26911934 -156.46999562 79.41403878 C-152.19824276 75.14724887 -147.92406847 70.88290442 -143.64798331 66.62045646 C-140.98454747 63.96450992 -138.32321201 61.30646623 -135.66242599 58.6478653 C-134.43425468 57.42155667 -133.20522392 56.19610805 -131.97524261 54.97161484 C-123.55758709 46.59431123 -123.55758709 46.59431123 -115.63192654 37.75360394 C-112.93452503 34.62000393 -110.00208438 31.70985447 -107.08984375 28.77734375 C-106.43538773 28.11718765 -105.7809317 27.45703156 -105.10664368 26.77687073 C-103.73239069 25.393248 -102.35673837 24.01101381 -100.97973633 22.63012695 C-98.89913074 20.5397955 -96.82946197 18.43901669 -94.75976562 16.33789062 C-88.01848851 9.54245169 -81.46742564 3.05113655 -73.203125 -1.90625 C-72.18863281 -2.51855469 -71.17414063 -3.13085938 -70.12890625 -3.76171875 C-46.89262867 -15.60562107 -21.75392331 -14.50261554 0 0 Z " fill="#3F6395" transform="translate(861.203125,415.90625)"/>
<path d="M0 0 C2.54913372 -0.0001553 5.09826767 -0.00164937 7.6473999 -0.00440979 C12.9626411 -0.0057868 18.27760268 0.0062049 23.59277344 0.02954102 C29.70506295 0.056194 35.81697274 0.05787341 41.92930055 0.04615265 C47.85815636 0.03531418 53.78689816 0.04171174 59.71575165 0.05570793 C62.21780757 0.06019869 64.7198746 0.0605802 67.22193146 0.05664253 C70.72402806 0.05370896 74.2255193 0.0703381 77.72753906 0.09204102 C78.7439447 0.08753937 79.76035034 0.08303772 80.80755615 0.07839966 C97.85228664 0.25254772 112.84964135 6.6867957 124.859375 18.66796875 C128.58303573 22.67976989 131.69108281 26.79317821 134.484375 31.49609375 C134.95488281 32.285 135.42539062 33.07390625 135.91015625 33.88671875 C141.93624917 44.90789163 142.9296467 56.53898706 142.84513855 68.89118958 C142.84645008 70.29659359 142.84908285 71.70199688 142.85290605 73.1073963 C142.85955491 76.93185292 142.84769658 80.75605333 142.83257186 84.58047736 C142.819534 88.71866453 142.8240064 92.85683894 142.82627869 96.99504089 C142.82784655 104.15233047 142.81848846 111.30953757 142.80156517 118.46680641 C142.77711343 128.81481544 142.7693636 139.16278486 142.7656012 149.51081964 C142.75904637 166.30256443 142.73911157 183.09426534 142.71069336 199.88598633 C142.68312766 216.19099713 142.66190638 232.49599597 142.64916992 248.80102539 C142.64798767 250.31030904 142.64798767 250.31030904 142.64678153 251.85008327 C142.64286622 256.89818103 142.63907514 261.94627888 142.63534582 266.99437678 C142.60428009 308.82832143 142.54899333 350.66218483 142.484375 392.49609375 C100.904375 392.49609375 59.324375 392.49609375 16.484375 392.49609375 C16.484375 302.40609375 16.484375 212.31609375 16.484375 119.49609375 C-0.015625 119.49609375 -16.515625 119.49609375 -33.515625 119.49609375 C-51.0015925 113.66743792 -51.0015925 113.66743792 -57.515625 108.49609375 C-58.12664062 108.04621094 -58.73765625 107.59632813 -59.3671875 107.1328125 C-68.52015606 99.97575559 -72.86346233 90.25191347 -76.515625 79.49609375 C-76.83660156 78.6865625 -77.15757812 77.87703125 -77.48828125 77.04296875 C-82.14674447 64.30261353 -80.35024386 48.38118624 -75.07421875 36.15625 C-71.25716693 28.5664277 -66.55744769 22.44046769 -60.515625 16.49609375 C-59.94070313 15.92246094 -59.36578125 15.34882813 -58.7734375 14.7578125 C-42.2768666 -0.5153285 -21.04308307 -0.10511475 0 0 Z " fill="#472267" transform="translate(378.515625,403.50390625)"/>
<path d="M0 0 C2.54913372 -0.0001553 5.09826767 -0.00164937 7.6473999 -0.00440979 C12.9626411 -0.0057868 18.27760268 0.0062049 23.59277344 0.02954102 C29.70506295 0.056194 35.81697274 0.05787341 41.92930055 0.04615265 C47.85815636 0.03531418 53.78689816 0.04171174 59.71575165 0.05570793 C62.21780757 0.06019869 64.7198746 0.0605802 67.22193146 0.05664253 C70.72402806 0.05370896 74.2255193 0.0703381 77.72753906 0.09204102 C78.7439447 0.08753937 79.76035034 0.08303772 80.80755615 0.07839966 C97.85228664 0.25254772 112.84964135 6.6867957 124.859375 18.66796875 C128.58303573 22.67976989 131.69108281 26.79317821 134.484375 31.49609375 C134.95488281 32.285 135.42539062 33.07390625 135.91015625 33.88671875 C142.76196386 46.4180483 142.91364894 59.5350581 142.82495117 73.41333008 C142.8241033 75.28714484 142.82458316 77.16096059 142.82627869 79.03477478 C142.82713381 84.08351974 142.8095868 89.13204765 142.78855681 94.1807425 C142.76970896 99.47112547 142.76803321 104.76151429 142.76448059 110.05192566 C142.75518384 120.05300949 142.73060233 130.05399407 142.70043212 140.05503434 C142.66681408 151.44809173 142.65038353 162.84115405 142.63534582 174.23424876 C142.60405052 197.65491862 142.55133642 221.0755006 142.484375 244.49609375 C142.154375 244.49609375 141.824375 244.49609375 141.484375 244.49609375 C141.41444336 243.93849365 141.34451172 243.38089355 141.27246094 242.80639648 C137.5917067 214.00242339 128.92443987 184.90087439 109.484375 162.49609375 C108.82050781 161.70074219 108.15664063 160.90539062 107.47265625 160.0859375 C95.10735238 145.72264916 79.86389413 135.75522217 62.484375 128.49609375 C61.4015625 128.00109375 60.31875 127.50609375 59.203125 126.99609375 C55.23390757 125.29607449 51.18869133 124.31123604 46.984375 123.37109375 C46.26378906 123.20222656 45.54320312 123.03335938 44.80078125 122.859375 C38.19951318 121.34335141 31.75399395 120.37299391 24.9609375 120.37011719 C23.70853271 120.36631042 22.45612793 120.36250366 21.16577148 120.35858154 C20.50551971 120.35838768 19.84526794 120.35819382 19.16500854 120.35799408 C16.34372644 120.35452816 13.52266457 120.33309629 10.70146179 120.31276321 C5.46842475 120.27506265 0.23563044 120.24346218 -4.99755859 120.24560547 C-8.65645347 120.24640253 -12.31452635 120.22261604 -15.97320557 120.18372345 C-17.35073122 120.17341308 -18.72835355 120.1716262 -20.105896 120.17937469 C-33.94940598 120.24942884 -46.49654225 117.24389618 -57.515625 108.49609375 C-58.12664062 108.04621094 -58.73765625 107.59632813 -59.3671875 107.1328125 C-68.52015606 99.97575559 -72.86346233 90.25191347 -76.515625 79.49609375 C-76.83660156 78.6865625 -77.15757812 77.87703125 -77.48828125 77.04296875 C-82.14674447 64.30261353 -80.35024386 48.38118624 -75.07421875 36.15625 C-71.25716693 28.5664277 -66.55744769 22.44046769 -60.515625 16.49609375 C-59.94070313 15.92246094 -59.36578125 15.34882813 -58.7734375 14.7578125 C-42.2768666 -0.5153285 -21.04308307 -0.10511475 0 0 Z " fill="#ED4A25" transform="translate(378.515625,403.50390625)"/>
<path d="M0 0 C13.94692261 10.44071301 21.56362446 23.30424784 25.796875 40.09375 C25.97049561 40.7326416 26.14411621 41.3715332 26.32299805 42.02978516 C29.92638873 57.72430592 24.85599821 74.21646114 17.00978947 87.7575655 C14.80320387 91.24764515 12.13068745 94.24137015 9.29649353 97.23051453 C8.77090629 97.79191783 8.24531904 98.35332113 7.70380491 98.93173665 C2.19113309 104.7925933 -3.45686377 110.51763618 -9.13452148 116.21801758 C-10.27118585 117.36261455 -11.4076806 118.50737997 -12.54402161 119.65229797 C-16.21715404 123.35121418 -19.89534772 127.04507377 -23.57421875 130.73828125 C-24.84950616 132.0189402 -26.12479059 133.29960212 -27.4000721 134.58026695 C-32.69895077 139.90068035 -37.99922459 145.21969732 -43.30320644 150.53502369 C-50.87397201 158.12210247 -58.4360365 165.7176294 -65.98659843 173.32481652 C-71.31997395 178.69681784 -76.66283068 184.05926992 -82.01290375 189.41464156 C-85.2010277 192.60641937 -88.38482587 195.80225035 -91.55853081 199.00837135 C-94.53305205 202.01285503 -97.51909849 205.00537384 -100.51453972 207.98899651 C-101.61177081 209.0860061 -102.70471744 210.18732005 -103.79304886 211.29315948 C-105.27703193 212.79971354 -106.77555279 214.2901171 -108.27879333 215.77742004 C-109.53163699 217.03522892 -109.53163699 217.03522892 -110.80979061 218.31844807 C-113.203125 220.09375 -113.203125 220.09375 -115.83438206 220.48925304 C-119.45718128 219.88436338 -121.24113814 217.88223704 -123.890625 215.40625 C-124.84324219 214.53613281 -125.79585937 213.66601562 -126.77734375 212.76953125 C-129.15181844 210.15034419 -130.06251785 208.3743036 -131.203125 205.09375 C-132.14121335 203.56772326 -133.12140193 202.06682559 -134.140625 200.59375 C-134.67042969 199.81515625 -135.20023438 199.0365625 -135.74609375 198.234375 C-136.22691406 197.52796875 -136.70773437 196.8215625 -137.203125 196.09375 C-138.80834391 193.57126314 -140.11767498 191.31271567 -141.203125 188.53125 C-142.0778765 186.07648468 -142.0778765 186.07648468 -143.66015625 184.26171875 C-145.37019886 181.85900066 -146.0924779 179.79816035 -146.890625 176.96875 C-147.26767578 175.66550781 -147.26767578 175.66550781 -147.65234375 174.3359375 C-148.203125 172.09375 -148.203125 172.09375 -148.203125 170.09375 C-148.863125 170.09375 -149.523125 170.09375 -150.203125 170.09375 C-151.35340404 167.79319193 -151.44215002 166.15367219 -151.640625 163.59375 C-152.04163658 159.18262259 -152.75997735 154.93849744 -153.703125 150.61328125 C-155.1249282 143.44872608 -155.35547418 136.56069105 -155.328125 129.28125 C-155.33199219 128.23259766 -155.33585938 127.18394531 -155.33984375 126.10351562 C-155.33855469 125.10384766 -155.33726562 124.10417969 -155.3359375 123.07421875 C-155.33480957 122.16567139 -155.33368164 121.25712402 -155.33251953 120.32104492 C-155.203125 118.09375 -155.203125 118.09375 -154.203125 116.09375 C-154.02164364 114.03408058 -153.88202792 111.97062012 -153.765625 109.90625 C-153.42804608 104.99502118 -152.82102342 100.73172546 -151.203125 96.09375 C-150.543125 96.09375 -149.883125 96.09375 -149.203125 96.09375 C-149.326875 94.918125 -149.326875 94.918125 -149.453125 93.71875 C-149.10820989 88.71748094 -147.21666419 84.6421912 -145.203125 80.09375 C-144.543125 80.09375 -143.883125 80.09375 -143.203125 80.09375 C-143.326875 79.041875 -143.326875 79.041875 -143.453125 77.96875 C-143.11504917 74.08087791 -141.48817572 72.2434145 -139.203125 69.09375 C-138.37882571 67.8305381 -137.56688092 66.55920249 -136.765625 65.28125 C-136.34023438 64.60449219 -135.91484375 63.92773438 -135.4765625 63.23046875 C-134.18290473 61.05982213 -133.04360324 58.84167067 -131.890625 56.59375 C-129.63835865 52.47753909 -126.89754035 49.47918341 -123.4609375 46.30859375 C-121.52193826 44.40649588 -119.7747128 42.46990573 -118.0065918 40.41259766 C-114.50259679 36.39170492 -110.84719479 32.56084711 -107.08984375 28.77734375 C-106.43538773 28.11718765 -105.7809317 27.45703156 -105.10664368 26.77687073 C-103.73239069 25.393248 -102.35673837 24.01101381 -100.97973633 22.63012695 C-98.89913074 20.5397955 -96.82946197 18.43901669 -94.75976562 16.33789062 C-88.01848851 9.54245169 -81.46742564 3.05113655 -73.203125 -1.90625 C-72.18863281 -2.51855469 -71.17414063 -3.13085938 -70.12890625 -3.76171875 C-46.89262867 -15.60562107 -21.75392331 -14.50261554 0 0 Z " fill="#00AE8D" transform="translate(861.203125,415.90625)"/>
<path d="M0 0 C4.28582215 1.65715046 7.15701856 4.8789774 10.32745361 8.07348633 C10.95973838 8.70265111 11.59202314 9.33181589 12.24346805 9.98004627 C14.36404133 12.09263272 16.47738305 14.21230767 18.59082031 16.33203125 C20.10821756 17.846719 21.62604008 19.36098083 23.14425659 20.87484741 C27.2684224 24.98988362 31.38622249 29.11123555 35.50265598 33.23400497 C39.80515786 37.54156201 44.11252768 41.84424674 48.41912842 46.14770508 C55.64890861 53.373845 62.87445737 60.60419592 70.09765625 67.83691406 C78.46001729 76.21016797 86.82957028 84.57618123 95.20288014 92.93848515 C102.38280119 100.10934487 109.5588356 107.28407653 116.73160625 114.46208858 C121.01969654 118.75330388 125.30914319 123.04313989 129.60208893 127.32949829 C133.63503095 131.35668397 137.6630891 135.38869039 141.68735123 139.4245491 C143.1691582 140.90901151 144.65268995 142.39175441 146.13801956 143.87269211 C148.15681416 145.88606476 150.16941519 147.90542548 152.18048096 149.92651367 C152.77695852 150.51852979 153.37343607 151.1105459 153.98798871 151.7205019 C158 155.77169963 158 155.77169963 158 158 C97.28 158 36.56 158 -26 158 C-40.7063807 121.23404825 -46.60735039 83.85502241 -30.86816406 46.00292969 C-23.39338232 28.75796079 -13.49651874 13.21287912 0 0 Z " fill="#462267" transform="translate(744,638)"/>
<path d="M0 0 C0 38.61 0 77.22 0 117 C-64.37785589 117 -64.37785589 117 -79 104 C-90.52117489 92.13879044 -97.32103512 75.96996638 -97.4375 59.4375 C-97.13251318 41.62666812 -90.7073183 27.50236155 -78 15 C-77.42507813 14.42636719 -76.85015625 13.85273438 -76.2578125 13.26171875 C-55.34698317 -6.09830745 -27.10533811 0 0 0 Z " fill="#F58F21" transform="translate(396,405)"/>
<path d="M0 0 C14.91723391 -0.07030302 29.83445491 -0.12309194 44.75181961 -0.15543652 C51.67932955 -0.17085862 58.60673613 -0.19185815 65.53417969 -0.22631836 C72.22558759 -0.25958835 78.91686619 -0.27687791 85.60836029 -0.28463173 C88.15509475 -0.29015409 90.70182368 -0.3009377 93.24851227 -0.31719017 C96.82888742 -0.3391207 100.40882579 -0.34196036 103.98925781 -0.34057617 C105.03080017 -0.351362 106.07234253 -0.36214783 107.14544678 -0.3732605 C124.6996773 -0.3003227 124.6996773 -0.3003227 130 5 C126.68325932 4.4897322 123.52836019 3.86948371 120.28930664 2.97314453 C113.22602853 1.40130209 106.00279924 1.75313322 98.80859375 1.8046875 C97.42777671 1.80763416 96.04695742 1.80967076 94.6661377 1.81079102 C89.58989069 1.82120614 84.51369176 1.84912851 79.4375 1.875 C68.073125 1.91625 56.70875 1.9575 45 2 C45 39.95 45 77.9 45 117 C49.95 117 54.9 117 60 117 C65.4375 118.5 65.4375 118.5 69 120 C65.15381444 121.3846268 61.97853512 120.57001834 58 120 C55.7477087 119.89232177 53.49317928 119.82544299 51.23852539 119.79467773 C49.28729515 119.7647599 49.28729515 119.7647599 47.29664612 119.73423767 C45.896984 119.71725972 44.49732067 119.70038069 43.09765625 119.68359375 C41.65033923 119.6629938 40.20302781 119.64199659 38.75572205 119.62062073 C34.96646698 119.56571374 31.17716048 119.5161676 27.38781738 119.46777344 C23.51305625 119.4173277 19.63836881 119.36176269 15.76367188 119.30664062 C8.17584385 119.19944345 0.58795409 119.09791495 -7 119 C-7 118.67 -7 118.34 -7 118 C9.83 118 26.66 118 44 118 C44 79.39 44 40.78 44 1 C29.48 1 14.96 1 0 1 C0 0.67 0 0.34 0 0 Z " fill="#CC5730" transform="translate(352,404)"/>
<path d="M0 0 C2.8100346 1.79363911 4.50940468 3.01880935 6 6 C6.50761671 10.39934481 6.25800237 12.54225386 4.0625 16.4375 C0.46605804 19.44676776 -1.28807787 19.79826723 -5.84375 19.44140625 C-9.30921137 18.73199115 -10.81594087 17.79832576 -13 15 C-13.9648449 11.93990019 -14.30775495 9.19723195 -14 6 C-10.48028041 0.17425724 -6.63382773 -0.95313617 0 0 Z " fill="#272435" transform="translate(938,776)"/>
<path d="M0 0 C2.1159367 4.2318734 2.27709375 7.12471496 2.24050903 11.69415283 C2.24221788 12.47344548 2.24392673 13.25273813 2.24568737 14.0556457 C2.24898374 16.66902638 2.23797617 19.28215076 2.22705078 21.89550781 C2.2264867 23.76799514 2.22680317 25.6404829 2.22793579 27.51296997 C2.22851042 32.59938638 2.21673823 37.68570878 2.20278788 42.77210331 C2.19029892 48.08656909 2.18911147 53.40103694 2.18673706 58.71551514 C2.18051689 68.78062066 2.16409881 78.84568281 2.14403808 88.91076922 C2.12169578 100.36892087 2.11068985 111.82707456 2.10064721 123.28524256 C2.07973306 146.85685243 2.04454664 170.42842379 2 194 C1.67 194 1.34 194 1 194 C0.01 186.08 -0.98 178.16 -2 170 C-1.34 170.66 -0.68 171.32 0 172 C0 115.24 0 58.48 0 0 Z " fill="#C15749" transform="translate(519,454)"/>
<path d="M0 0 C-1.4761388 3.41752271 -3.39285697 5.64090609 -6.01904297 8.26196289 C-6.84685272 9.09284927 -7.67466248 9.92373566 -8.52755737 10.77980042 C-9.42338531 11.66844284 -10.31921326 12.55708527 -11.2421875 13.47265625 C-12.1621048 14.39211533 -13.08202209 15.3115744 -14.02981567 16.25889587 C-15.97529514 18.20281349 -17.9240804 20.14333288 -19.87548828 22.08129883 C-22.37106402 24.55989717 -24.86001879 27.04501491 -27.34673882 29.53249454 C-29.72576633 31.91118398 -32.1090304 34.28560388 -34.4921875 36.66015625 C-35.38396698 37.55082291 -36.27574646 38.44148956 -37.19454956 39.35914612 C-38.02866364 40.18688034 -38.86277771 41.01461456 -39.72216797 41.86743164 C-40.4533786 42.59483047 -41.18458923 43.32222931 -41.93795776 44.07167053 C-44 46 -44 46 -46.1736145 47.61375427 C-48.54857825 49.41637664 -49.55073732 51.40340436 -51 54 C-51.680625 55.010625 -52.36125 56.02125 -53.0625 57.0625 C-54.5688902 59.34638191 -55.85740618 61.52438006 -57 64 C-57.66 63.67 -58.32 63.34 -59 63 C-55.51335529 55.69288289 -51.79888446 49.58835381 -45.93891907 43.93937683 C-44.10400941 42.10403396 -42.41227507 40.2121758 -40.72729492 38.23950195 C-37.19728332 34.17652839 -33.48661286 30.34154443 -29.67578125 26.54296875 C-28.67275215 25.53850456 -28.67275215 25.53850456 -27.64945984 24.51374817 C-26.24987428 23.11348786 -24.84904826 21.71446639 -23.44702148 20.31665039 C-21.30400805 18.17902942 -19.16643193 16.03607443 -17.02929688 13.89257812 C-15.66177914 12.52572063 -14.29395153 11.15917307 -12.92578125 9.79296875 C-12.29029861 9.15546188 -11.65481598 8.51795502 -11.00007629 7.86112976 C-3.09727189 0 -3.09727189 0 0 0 Z " fill="#0F9784" transform="translate(784,418)"/>
<path d="M0 0 C0.33 0.66 0.66 1.32 1 2 C-0.07421875 4.46875 -0.07421875 4.46875 -1.6875 7.5 C-6.39209388 16.66960196 -9.42959878 25.03406295 -11.38671875 35.19140625 C-12 38 -12 38 -13 39 C-13.20968751 41.32986123 -13.36815389 43.66444036 -13.5 46 C-13.88888889 52.88888889 -13.88888889 52.88888889 -15 54 C-15.15620555 55.41327947 -15.25056173 56.8335459 -15.31640625 58.25390625 C-15.35830078 59.10791016 -15.40019531 59.96191406 -15.44335938 60.84179688 C-15.48267578 61.73962891 -15.52199219 62.63746094 -15.5625 63.5625 C-15.62727539 64.91504883 -15.62727539 64.91504883 -15.69335938 66.29492188 C-15.79978142 68.52978485 -15.90179988 70.76476308 -16 73 C-16.33 73 -16.66 73 -17 73 C-17.0289337 69.20834926 -17.04677601 65.41672673 -17.0625 61.625 C-17.07087891 60.54476562 -17.07925781 59.46453125 -17.08789062 58.3515625 C-17.09111328 57.3203125 -17.09433594 56.2890625 -17.09765625 55.2265625 C-17.10289307 54.27346191 -17.10812988 53.32036133 -17.11352539 52.33837891 C-17 50 -17 50 -16 48 C-15.81851864 45.94033058 -15.67890292 43.87687012 -15.5625 41.8125 C-15.22492108 36.90127118 -14.61789842 32.63797546 -13 28 C-12.34 28 -11.68 28 -11 28 C-11.0825 27.21625 -11.165 26.4325 -11.25 25.625 C-10.90508489 20.62373094 -9.01353919 16.5484412 -7 12 C-6.34 12 -5.68 12 -5 12 C-5.12375 10.948125 -5.12375 10.948125 -5.25 9.875 C-4.89795591 5.82649294 -2.86601603 2.86601603 0 0 Z " fill="#129891" transform="translate(723,484)"/>
<path d="M0 0 C2.8100346 1.79363911 4.50940468 3.01880935 6 6 C6.50761671 10.39934481 6.25800237 12.54225386 4.0625 16.4375 C0.46605804 19.44676776 -1.28807787 19.79826723 -5.84375 19.44140625 C-9.30921137 18.73199115 -10.81594087 17.79832576 -13 15 C-13.9648449 11.93990019 -14.30775495 9.19723195 -14 6 C-10.48028041 0.17425724 -6.63382773 -0.95313617 0 0 Z M-9.375 3 C-12.26341126 5.79546608 -12.26341126 5.79546608 -12.6875 9.5 C-11.82303105 13.90093281 -10.62652055 15.39836569 -7 18 C-4 18.83333333 -4 18.83333333 -1 18 C2.02033737 16.06307631 2.02033737 16.06307631 4 13 C4.63127485 9.00192592 4.67917484 6.99264015 2.375 3.625 C-2.11996211 0.54949961 -4.62593128 0.18573705 -9.375 3 Z " fill="#E4E3E9" transform="translate(938,776)"/>
<path d="M0 0 C0.99 0.33 1.98 0.66 3 1 C2.17495972 1.71784668 2.17495972 1.71784668 1.33325195 2.45019531 C-6.71041385 9.55987903 -14.24962684 17.13675205 -21.8125 24.75 C-23.12150787 26.06403814 -24.43075126 27.37784171 -25.74023438 28.69140625 C-28.13792914 31.09719086 -30.53427535 33.50430031 -32.92895508 35.91308594 C-35.61424891 38.61380678 -38.30556953 41.30839553 -41 44 C-40.43045162 40.23318786 -38.88765569 38.52194106 -36.21459961 35.87402344 C-35.01346779 34.67323151 -35.01346779 34.67323151 -33.78807068 33.44818115 C-32.91828079 32.59387512 -32.04849091 31.73956909 -31.15234375 30.859375 C-30.2659169 29.97719299 -29.37949005 29.09501099 -28.46620178 28.18609619 C-26.11236944 25.84621423 -23.75226246 23.51304602 -21.38885498 21.18286133 C-18.97711583 18.80185337 -16.57388521 16.41229147 -14.16992188 14.0234375 C-9.45441941 9.3410322 -4.73045844 4.66729272 0 0 Z " fill="#021C27" transform="translate(778,419)"/>
<path d="M0 0 C0.33 0 0.66 0 1 0 C1.02693575 2.12493141 1.04636628 4.24995912 1.0625 6.375 C1.07410156 7.55835938 1.08570313 8.74171875 1.09765625 9.9609375 C1 13 1 13 0 15 C-0.24595677 18.55624557 -0.1900313 22.12370788 -0.1875 25.6875 C-0.18741943 26.72447021 -0.18733887 27.76144043 -0.18725586 28.82983398 C-0.12672139 37.04276872 0.58306195 44.90173361 2 53 C2.28037109 54.68416016 2.28037109 54.68416016 2.56640625 56.40234375 C2.70949219 57.25957031 2.85257813 58.11679687 3 59 C0.96995128 57.3173393 0.08363037 56.39073204 -0.4765625 53.7734375 C-0.52554688 52.98195313 -0.57453125 52.19046875 -0.625 51.375 C-0.60877773 48.38851817 -0.60877773 48.38851817 -2 46 C-2.10099488 43.27275721 -2.13970529 40.57137477 -2.1328125 37.84375 C-2.13376923 37.02628296 -2.13472595 36.20881592 -2.13571167 35.36657715 C-2.13639345 33.63484622 -2.13453929 31.90311276 -2.13037109 30.17138672 C-2.12502279 27.51133518 -2.13031612 24.8514525 -2.13671875 22.19140625 C-2.13605797 20.51302046 -2.1347768 18.83463477 -2.1328125 17.15625 C-2.13483673 16.35521851 -2.13686096 15.55418701 -2.13894653 14.72888184 C-2.11495079 9.11495079 -2.11495079 9.11495079 -1 8 C-0.76924918 6.65252916 -0.58846937 5.29622435 -0.4375 3.9375 C-0.293125 2.638125 -0.14875 1.33875 0 0 Z " fill="#2C6F8F" transform="translate(707,519)"/>
<path d="M0 0 C1.37520651 3.82001808 0.74051523 7.07526927 0 11 C-0.33 11.33 -0.66 11.66 -1 12 C-1.0991657 13.62257544 -1.13079777 15.24939831 -1.1328125 16.875 C-1.13474609 18.35226562 -1.13474609 18.35226562 -1.13671875 19.859375 C-1.13285156 20.89578125 -1.12898438 21.9321875 -1.125 23 C-1.12886719 24.03640625 -1.13273437 25.0728125 -1.13671875 26.140625 C-1.13542969 27.12546875 -1.13414062 28.1103125 -1.1328125 29.125 C-1.13168457 30.03507812 -1.13055664 30.94515625 -1.12939453 31.8828125 C-1.23560009 33.9852848 -1.23560009 33.9852848 0 35 C0.04092937 37.33297433 0.04241723 39.66705225 0 42 C-3.75152558 36.37271163 -4.36207254 30.50780599 -4.3125 23.875 C-4.31048584 23.14015381 -4.30847168 22.40530762 -4.30639648 21.64819336 C-4.1744874 14.35685947 -3.29741859 6.59483719 0 0 Z " fill="#C87F39" transform="translate(303,441)"/>
<path d="M0 0 C1.98 0 3.96 0 6 0 C6.98248524 4.0527516 7.08159574 7.83861737 7 12 C5 11 5 11 4 8 C3.01 7.67 2.02 7.34 1 7 C0.67 8.32 0.34 9.64 0 11 C0 7.37 0 3.74 0 0 Z " fill="#B3B2B9" transform="translate(931,780)"/>
<path d="M0 0 C5.43868786 5.43868786 5.38535225 13.63568356 5.41015625 20.88671875 C5.39855469 22.03785156 5.38695312 23.18898438 5.375 24.375 C5.38660156 25.54933594 5.39820313 26.72367187 5.41015625 27.93359375 C5.40628906 29.05636719 5.40242187 30.17914063 5.3984375 31.3359375 C5.39505371 32.35220215 5.39166992 33.3684668 5.38818359 34.41552734 C4.94986525 37.33379026 4.29200296 38.2193542 2 40 C2.23976563 38.53626953 2.23976563 38.53626953 2.484375 37.04296875 C3.98568924 26.44592619 3.77260666 15.54316361 0.65625 5.28515625 C0 3 0 3 0 0 Z " fill="#011D28" transform="translate(884,445)"/>
<path d="M0 0 C0.33 0 0.66 0 1 0 C1 11.55 1 23.1 1 35 C0.67 35 0.34 35 0 35 C-0.99 27.08 -1.98 19.16 -3 11 C-2.34 11.66 -1.68 12.32 -1 13 C-0.67 8.71 -0.34 4.42 0 0 Z " fill="#B75454" transform="translate(520,613)"/>
<path d="M0 0 C0.33 0 0.66 0 1 0 C1.33 2.31 1.66 4.62 2 7 C2.639375 7.103125 3.27875 7.20625 3.9375 7.3125 C4.618125 7.539375 5.29875 7.76625 6 8 C6.33 8.99 6.66 9.98 7 11 C7.99 11 8.98 11 10 11 C8.875 12.5 8.875 12.5 7 14 C3.9375 14.3125 3.9375 14.3125 1 14 C0.34 13.34 -0.32 12.68 -1 12 C-0.9765625 9.1796875 -0.9765625 9.1796875 -0.625 5.875 C-0.51414062 4.77929688 -0.40328125 3.68359375 -0.2890625 2.5546875 C-0.14597656 1.29011719 -0.14597656 1.29011719 0 0 Z " fill="#464353" transform="translate(930,780)"/>
<path d="M0 0 C4.875 1.75 4.875 1.75 6 4 C6.23333333 10.53333333 6.23333333 10.53333333 5 13 C4.01 12.67 3.02 12.34 2 12 C1.93941406 11.38511719 1.87882813 10.77023437 1.81640625 10.13671875 C1.73261719 9.32847656 1.64882813 8.52023437 1.5625 7.6875 C1.48128906 6.88699219 1.40007813 6.08648438 1.31640625 5.26171875 C1.04734307 2.83912821 1.04734307 2.83912821 0 0 Z " fill="#191528" transform="translate(936,778)"/>
<path d="M0 0 C0 3.67819168 -0.76843318 4.22382655 -3.1875 6.875 C-3.82429688 7.58011719 -4.46109375 8.28523438 -5.1171875 9.01171875 C-6.63592329 10.61552895 -8.21556338 12.16153834 -9.8125 13.6875 C-12.05416483 16.05725997 -13.02984522 17.91314387 -14 21 C-14.66 21 -15.32 21 -16 21 C-14.68594611 15.79821271 -12.22787953 12.58301428 -8.5625 8.8125 C-8.07201172 8.29236328 -7.58152344 7.77222656 -7.07617188 7.23632812 C-4.75665334 4.7853389 -2.40238914 2.36981437 0 0 Z " fill="#D4873B" transform="translate(322,416)"/>
<path d="M0 0 C0.33 0 0.66 0 1 0 C3.641513 8.91510638 3.17875809 17.79395814 3 27 C2.67 27 2.34 27 2 27 C1.90912109 25.62714844 1.90912109 25.62714844 1.81640625 24.2265625 C1.73261719 23.03804688 1.64882813 21.84953125 1.5625 20.625 C1.48128906 19.44164062 1.40007813 18.25828125 1.31640625 17.0390625 C1.18915064 14.08481099 1.18915064 14.08481099 0 12 C-0.07065617 9.95944995 -0.08421976 7.91665743 -0.0625 5.875 C-0.05347656 4.77929688 -0.04445313 3.68359375 -0.03515625 2.5546875 C-0.02355469 1.71164062 -0.01195312 0.86859375 0 0 Z " fill="#0E8172" transform="translate(885,451)"/>
<path d="M0 0 C0.66 0.66 1.32 1.32 2 2 C1.505 2.350625 1.01 2.70125 0.5 3.0625 C-1.74153389 5.95781461 -1.19088797 8.43675791 -1 12 C-1 12.99 -1 13.98 -1 15 C-1.66 14.67 -2.32 14.34 -3 14 C-3.874138 11.02054371 -4.15249159 8.09715673 -4 5 C-2.0625 1.9375 -2.0625 1.9375 0 0 Z " fill="#CECCD5" transform="translate(928,777)"/>
<path d="M0 0 C0.33 0 0.66 0 1 0 C1.13277344 1.01320313 1.26554688 2.02640625 1.40234375 3.0703125 C1.58067584 4.42188204 1.75906425 5.77344414 1.9375 7.125 C2.02451172 7.79015625 2.11152344 8.4553125 2.20117188 9.140625 C2.72630558 13.10830188 3.31814014 17.05626998 4 21 C1.35193191 18.74239771 0.59132084 17.33237847 0.3125 13.875 C0.24804688 13.08996094 0.18359375 12.30492187 0.1171875 11.49609375 C-0.06307103 7.65658708 -0.06100581 3.84336581 0 0 Z " fill="#23778D" transform="translate(706,557)"/>
<path d="M0 0 C0.66 0 1.32 0 2 0 C2 0.66 2 1.32 2 2 C2.66 2 3.32 2 4 2 C4 2.66 4 3.32 4 4 C4.53625 4.226875 5.0725 4.45375 5.625 4.6875 C8.78500863 6.43382056 11.2676983 8.6402849 14 11 C13.01 11.495 13.01 11.495 12 12 C10.3678622 10.75933437 8.74452679 9.50708312 7.125 8.25 C6.22007812 7.55390625 5.31515625 6.8578125 4.3828125 6.140625 C2.14952853 4.13433055 1.08041718 2.75692659 0 0 Z " fill="#D0853A" transform="translate(313,503)"/>
<path d="M0 0 C0 3.58371915 -0.74478337 4.27587204 -2.9375 7 C-4.90175833 9.45184019 -5.99335342 10.98006027 -7 14 C-7.66 13.67 -8.32 13.34 -9 13 C-6.6560756 7.72289646 -4.33034194 3.84919283 0 0 Z " fill="#139A91" transform="translate(734,468)"/>
<path d="M0 0 C2.77834684 1.38917342 2.99642986 2.95763553 4.125 5.8125 C4.47820313 6.68519531 4.83140625 7.55789063 5.1953125 8.45703125 C6 11 6 11 6 15 C5.34 15 4.68 15 4 15 C3.51787786 13.43840941 3.03944127 11.87568072 2.5625 10.3125 C2.29566406 9.44238281 2.02882813 8.57226562 1.75390625 7.67578125 C1.03655471 5.12974079 0.482459 2.5996577 0 0 Z " fill="#C24B36" transform="translate(513,437)"/>
<path d="M0 0 C0 4.24645065 -1.81750806 6.38524772 -4 10 C-4.33 10 -4.66 10 -5 10 C-5.3125 7.8125 -5.3125 7.8125 -5 5 C-2.5 2.1875 -2.5 2.1875 0 0 Z " fill="#2B718F" transform="translate(727,475)"/>
<path d="M0 0 C4.571279 0.54855348 8.67435795 1.41744803 13 3 C13 3.33 13 3.66 13 4 C7.73946963 4.31563182 4.55426184 3.66590937 0 1 C0 0.67 0 0.34 0 0 Z " fill="#38180D" transform="translate(332,519)"/>
<path d="M0 0 C0 3.77910478 -0.99703962 4.46106101 -3.5 7.1875 C-4.47453125 8.26064453 -4.47453125 8.26064453 -5.46875 9.35546875 C-5.9740625 9.89816406 -6.479375 10.44085938 -7 11 C-7.33 10.01 -7.66 9.02 -8 8 C-5.36 5.36 -2.72 2.72 0 0 Z " fill="#E08D39" transform="translate(322,416)"/>
<path d="M0 0 C0.33 0 0.66 0 1 0 C0.25 7.625 0.25 7.625 -2 11 C-2.66 11 -3.32 11 -4 11 C-2.7874262 7.27566618 -1.49140021 3.62197194 0 0 Z " fill="#032E35" transform="translate(883,491)"/>
<path d="M0 0 C0 0.66 0 1.32 0 2 C-4.0188515 3.81242323 -7.61110675 5.33501617 -12 6 C-8.40461874 2.91824463 -4.933456 0 0 0 Z " fill="#169884" transform="translate(800,409)"/>
<path d="M0 0 C0.33 0.66 0.66 1.32 1 2 C-0.68474722 5.36949443 -1.8191658 6.87944386 -5 9 C-3.90931332 5.22454612 -3.0916909 2.52956528 0 0 Z " fill="#169491" transform="translate(723,484)"/>
</svg>
